<svg t="1722510013140" class="icon" viewBox="0 0 1024 1024" version="1.1" xmlns="http://www.w3.org/2000/svg" p-id="7190" width="16" height="16"><path d="M407.9616 82.432l-18.51392 8.72448-18.57536 8.72448c2.68288 5.71392 27.4432 55.93088 70.49216 57.83552 40.12032 1.76128 40.83712 3.8912 47.80032 23.7568 1.98656 5.8368 2.82624 26.624 2.78528 50.93376a181.248 181.248 0 0 0-25.43616-28.73344c-41.43104-37.43744-94.47424-30.04416-145.7152-22.87616l-17.5104 2.39616c-38.2976 5.03808-50.688-26.09152-51.97824-29.63456l-19.3536 6.7584-19.3536 6.5536c7.7824 22.99904 37.80608 64.47104 95.9488 56.97536l17.92-2.47808c47.7184-6.63552 85.36064-11.89888 112.59904 12.6976 25.88672 23.42912 39.3216 55.62368 44.09344 69.0176-7.29088 9.09312-14.17216 18.2272-20.80768 27.40224 11.4688 1.88416 26.58304 5.3248 43.04896 11.50976 23.7568-30.98624 48.86528-58.53184 77.02528-78.9504 58.38848 12.3904 111.37024 20.43904 155.09504 25.8048l-15.44192 37.2736 18.26816 7.5776c-12.14464 7.3728-20.97152 18.6368-23.552 32.50176-5.3248 28.63104 17.65376 56.9344 51.32288 63.20128 33.66912 6.26688 65.24928-11.85792 70.59456-40.48896 0.90112-4.85376 0.7168-9.66656 0.08192-14.39744l10.28096 4.3008c1.80224 23.71584 1.16736 51.07712-3.15392 83.06688l-0.6144 4.3008c-0.14336 1.08544-0.28672 2.49856-0.47104 3.76832-107.2128-8.25344-199.7824-43.8272-264.92928-76.75904 3.72736 4.42368 7.35232 9.07264 10.69056 14.1312 24.82176 37.5808 30.208 84.02944 15.19616 130.78528-16.5888 51.56864-57.71264 88.24832-112.8448 100.53632a199.08608 199.08608 0 0 1-43.15136 4.62848c-67.1744 0-136.72448-31.39584-186.92096-83.98848-87.94112 47.86176-184.23808 70.67648-185.71264 71.02464l-16.19968 3.80928 10.6496 12.75904c52.46976 62.976 226.79552 193.04448 430.4896 193.04448 172.032 0 322.82624-121.28256 371.44576-287.37536l0.16384 0.04096 0.28672-1.31072c6.9632-24.18688 11.83744-49.29536 14.2336-75.12064v-0.08192l63.0784-17.36704-48.64-24.90368 60.8256-22.3232-73.13408-27.81184c-6.8608-138.8544-88.96512-178.50368-128.8192-189.35808-99.2256-27.09504-172.50304 5.3248-228.7616 55.56224 0.57344-29.24544 0.12288-67.31776-4.99712-81.96096-15.19616-43.39712-38.52288-49.07008-84.62336-51.11808-14.5408-0.6144-30.0032-23.4496-35.2256-34.36544z m-101.64224 162.2016l5.12 30.72c0.24576 1.47456 4.44416 21.05344 10.69056 41.6768 27.7504 4.75136 55.296 8.43776 86.4256 12.24704 10.91584-15.50336 24.24832-35.77856 36.5568-50.91328-56.56576-13.45536-107.52-26.0096-108.544-26.27584l-30.24896-7.45472z m433.52064 44.48256c37.29408 4.52608 67.85024 7.10656 88.04352 8.43776 5.09952 9.66656 9.46176 20.8896 13.08672 33.52576l-101.13024-41.96352zM180.67456 325.0176l8.92928 32.72704c0.98304 3.62496 25.06752 89.84576 100.84352 171.27424 43.008 46.20288 103.6288 73.35936 159.39584 73.35936 11.6736 0 23.22432-1.2288 34.28352-3.6864 41.1648-9.17504 70.57408-35.08224 82.7392-72.99072 11.32544-35.20512 7.72096-68.32128-10.38336-95.72352-26.05056-39.424-75.12064-57.11872-112.35328-60.55936-106.84416-9.8304-229.13024-36.74112-230.35904-37.02784l-33.09568-7.3728z m605.92128 27.87328l31.80544 13.16864c0.4096 2.27328 0.57344 4.64896 0.12288 7.04512a20.23424 20.23424 0 0 1-23.79776 15.872A20.23424 20.23424 0 0 1 778.24 365.568a19.61984 19.61984 0 0 1 8.35584-12.6976z" p-id="7191" fill="#bfbfbf"></path></svg>